<svg width="24" height="24" viewBox="0 0 24 24" fill="none" xmlns="http://www.w3.org/2000/svg">
<g clip-path="url(#clip0_19_269)">
<path d="M20.879 12.7069L10.987 22.5999L12.4 24.0129L22.293 14.1209C22.8554 13.5584 23.1714 12.7954 23.1714 11.9999C23.1714 11.2044 22.8554 10.4415 22.293 9.87894L12.408 -0.00606631L10.994 1.40794L20.878 11.2929C21.0656 11.4803 21.1711 11.7346 21.1713 11.9997C21.1715 12.2649 21.0664 12.5193 20.879 12.7069Z" fill="#F6DACF"/>
<path d="M0.99997 22.5829L2.41697 23.9999L13.707 12.7099C13.8944 12.5224 13.9998 12.2681 13.9998 12.0029C13.9998 11.7377 13.8944 11.4834 13.707 11.2959L2.41597 -0.000107824L0.999971 1.41589L11.586 11.9999L0.99997 22.5829Z" fill="#F6DACF"/>
</g>
<defs>
<clipPath id="clip0_19_269">
<rect width="24" height="24" fill="white" transform="translate(24 24) rotate(-180)"/>
</clipPath>
</defs>
</svg>
