<svg width="24" height="24" viewBox="0 0 24 24" fill="none" xmlns="http://www.w3.org/2000/svg">
<g clip-path="url(#clip0_19_260)">
<path d="M3.12097 11.2931L13.013 1.40006L11.6 -0.0129395L1.70697 9.87906C1.14456 10.4416 0.828613 11.2046 0.828613 12.0001C0.828613 12.7956 1.14456 13.5585 1.70697 14.1211L11.592 24.0061L13.006 22.5921L3.12197 12.7071C2.93437 12.5197 2.82887 12.2654 2.82869 12.0003C2.8285 11.7351 2.93363 11.4807 3.12097 11.2931Z" fill="#F6DACF"/>
<path d="M23 1.41712L21.583 0.00012207L10.293 11.2901C10.1056 11.4776 10.0002 11.7319 10.0002 11.9971C10.0002 12.2623 10.1056 12.5166 10.293 12.7041L21.584 24.0001L23 22.5841L12.414 12.0001L23 1.41712Z" fill="#F6DACF"/>
</g>
<defs>
<clipPath id="clip0_19_260">
<rect width="24" height="24" fill="white"/>
</clipPath>
</defs>
</svg>
