<svg width="16" height="14" viewBox="0 0 16 14" fill="none" xmlns="http://www.w3.org/2000/svg">
<g clip-path="url(#clip0_56_43)">
<path d="M16 1.75H2.828L2.8 1.54525C2.7427 1.11966 2.50892 0.72726 2.14299 0.442445C1.77706 0.15763 1.30442 0.00019938 0.814667 0L0 0V1.16667H0.814667C0.977956 1.16669 1.13556 1.21914 1.25758 1.31408C1.3796 1.40903 1.45756 1.53985 1.47667 1.68175L2.53333 9.53808C2.59063 9.96367 2.82441 10.3561 3.19034 10.6409C3.55627 10.9257 4.02891 11.0831 4.51867 11.0833H13.3333V9.91667H4.51867C4.35528 9.91663 4.19759 9.86409 4.07555 9.76903C3.95351 9.67397 3.87562 9.543 3.85667 9.401L3.76933 8.75H14.5573L16 1.75ZM13.4427 7.58333H3.61267L2.98533 2.91667H14.4047L13.4427 7.58333Z" fill="black"/>
<path d="M4.66677 14.0004C5.40314 14.0004 6.0001 13.478 6.0001 12.8337C6.0001 12.1894 5.40314 11.6671 4.66677 11.6671C3.93039 11.6671 3.33344 12.1894 3.33344 12.8337C3.33344 13.478 3.93039 14.0004 4.66677 14.0004Z" fill="black"/>
<path d="M11.3333 14.0004C12.0697 14.0004 12.6667 13.478 12.6667 12.8337C12.6667 12.1894 12.0697 11.6671 11.3333 11.6671C10.597 11.6671 10 12.1894 10 12.8337C10 13.478 10.597 14.0004 11.3333 14.0004Z" fill="black"/>
</g>
<defs>
<clipPath id="clip0_56_43">
<rect width="16" height="14" fill="white"/>
</clipPath>
</defs>
</svg>
